<svg width="120" height="120" viewBox="0 0 120 120" fill="none" xmlns="http://www.w3.org/2000/svg">
  <!-- Hexagon Background -->
  <path d="M60 5L103.301 30V80L103.301 90L60 115L16.699 90V30L60 5Z" fill="#D97619" stroke="none"/>
  
  <!-- Inner hexagon highlight -->
  <path d="M60 12L95.311 32V88L60 108L24.689 88V32L60 12Z" fill="#F59E0B" fill-opacity="0.8"/>
  
  <!-- Top text: FORSYTH -->
  <text x="60" y="35" text-anchor="middle" fill="white" font-family="Arial, sans-serif" font-size="11" font-weight="bold" letter-spacing="1px">FORSYTH</text>
  
  <!-- Chat bubble background -->
  <rect x="42" y="45" width="36" height="24" rx="4" fill="white"/>
  
  <!-- Chat dots -->
  <circle cx="51" cy="57" r="2.5" fill="#D97619"/>
  <circle cx="60" cy="57" r="2.5" fill="#D97619"/>
  <circle cx="69" cy="57" r="2.5" fill="#D97619"/>
  
  <!-- Chat bubble tail -->
  <path d="M54 69L60 75L66 69Z" fill="white"/>
  
  <!-- Bottom text: COUNTY -->
  <text x="60" y="95" text-anchor="middle" fill="white" font-family="Arial, sans-serif" font-size="11" font-weight="bold" letter-spacing="1px">COUNTY</text>
  
  <!-- Decorative lines -->
  <line x1="20" y1="35" x2="38" y2="35" stroke="white" stroke-width="1.5" stroke-linecap="round"/>
  <line x1="82" y1="35" x2="100" y2="35" stroke="white" stroke-width="1.5" stroke-linecap="round"/>
  <line x1="20" y1="85" x2="38" y2="85" stroke="white" stroke-width="1.5" stroke-linecap="round"/>
  <line x1="82" y1="85" x2="100" y2="85" stroke="white" stroke-width="1.5" stroke-linecap="round"/>
</svg>